<svg
        width="48"
        height="48"
        viewBox="0 0 48 48"
        fill="none"
        xmlns="http://www.w3.org/2000/svg"
>
    <path
            d="M24 47.5C11.0417 47.5 0.5 36.9583 0.5 24C0.5 11.0418 11.0436 0.499996 24 0.499997C36.9564 0.499997 47.5 11.0418 47.5 24C47.5 36.9583 36.9583 47.5 24 47.5Z"
            fill="#FFF8EB"
            stroke="#FFF1D6"
    />
    <path
            d="M25.0153 18.2897L20.0377 23.2672C19.6515 23.6555 19.6515 24.2826 20.0377 24.6709L25.0153 29.6484C25.3876 29.9679 25.9381 29.9679 26.3104 29.6484C26.7275 29.291 26.7763 28.6619 26.4189 28.2447L22.1482 23.974L26.4189 19.6933C26.8052 19.3051 26.8052 18.6779 26.4189 18.2897C26.0307 17.9034 25.4035 17.9034 25.0153 18.2897Z"
            fill="#323232"
    />
</svg>