<svg
        width="48"
        height="48"
        viewBox="0 0 48 48"
        fill="none"
        xmlns="http://www.w3.org/2000/svg"
>
    <path
            d="M24 47.5C36.9583 47.5 47.5 36.9583 47.5 24C47.5 11.0418 36.9564 0.499996 24 0.499997C11.0436 0.499997 0.500003 11.0418 0.500004 24C0.500004 36.9583 11.0417 47.5 24 47.5Z"
            fill="#FFF8EB"
            stroke="#FFF1D6"
    />
    <path
            d="M22.9847 18.2897L27.9623 23.2672C28.3485 23.6555 28.3485 24.2826 27.9623 24.6709L22.9847 29.6484C22.6124 29.9679 22.0619 29.9679 21.6896 29.6484C21.2725 29.291 21.2237 28.6619 21.5811 28.2447L25.8518 23.974L21.5811 19.6933C21.1948 19.3051 21.1948 18.6779 21.5811 18.2897C21.9693 17.9034 22.5965 17.9034 22.9847 18.2897Z"
            fill="#323232"
    />
</svg>