<svg width="201" height="55" viewBox="0 0 201 55" fill="none" xmlns="http://www.w3.org/2000/svg">
<path d="M46.5661 7.37944L25.537 29.8946L25.4875 29.9937C24.9921 30.9845 24.4554 31.9917 23.8775 33.0155C23.2995 34.0558 22.6638 35.0631 21.9703 36.0374C21.2767 37.0281 20.5171 37.9611 19.6915 38.8363C18.8824 39.7115 17.9989 40.4711 17.0412 41.1151C16.0835 41.7756 15.0431 42.2957 13.9203 42.6755C12.7974 43.0553 11.592 43.2452 10.304 43.2452C9.11506 43.2452 7.95916 43.0388 6.83629 42.626C5.71342 42.2297 4.7144 41.6435 3.83922 40.8674C2.98056 40.0913 2.28702 39.1335 1.75861 37.9941C1.2302 36.8548 0.965998 35.5502 0.965998 34.0806C0.965998 33.4862 1.02379 32.8422 1.13938 32.1486C1.27148 31.4716 1.44487 30.7863 1.65953 30.0928C1.89071 29.3992 2.15492 28.7305 2.45215 28.0865C2.76589 27.4425 3.09615 26.8645 3.44292 26.3526C5.72168 23.017 8.90865 20.5649 13.0038 18.9962C14.6551 18.3687 16.3889 17.8898 18.2053 17.5596C20.0218 17.2293 21.929 17.0477 23.927 17.0146L22.7876 19.7888C19.0227 20.02 15.5798 20.9117 12.4589 22.4639C9.91593 23.7519 7.88485 25.4197 6.36568 27.4672C4.8465 29.5148 4.08691 31.5789 4.08691 33.6595C4.08691 34.6008 4.23553 35.4677 4.53276 36.2603C4.8465 37.0694 5.27583 37.763 5.82076 38.3409C6.38219 38.9189 7.05096 39.373 7.82706 39.7032C8.60316 40.0335 9.45357 40.1986 10.3783 40.1986C11.4186 40.1986 12.4424 40.0004 13.4497 39.6041C14.4735 39.2243 15.4642 38.6547 16.422 37.8951C17.3797 37.152 18.2797 36.2355 19.1218 35.1457C19.9805 34.0558 20.7731 32.8091 21.4996 31.4055C21.5822 31.2404 21.7061 31.001 21.8712 30.6872C22.0528 30.357 22.3088 29.8203 22.639 29.0772C22.9858 28.3342 23.4399 27.3104 24.0013 26.0059C24.5628 24.7013 25.2728 22.9758 26.1315 20.8291C27.0067 18.6824 28.0552 16.0487 29.2772 12.9277C30.4991 9.79031 31.944 6.02539 33.6118 1.63299H36.7575L27.7662 24.0739L48.82 1.80637L48.8944 1.63299H56.548L55.4086 4.53098H51.0493L40.0518 31.8266H36.4602L46.5661 7.37944ZM48.1325 32C47.5545 31.967 47.0674 31.8266 46.6711 31.5789C46.2748 31.3147 45.9528 30.9845 45.7051 30.5882C45.4739 30.1919 45.317 29.7543 45.2345 29.2754C45.1519 28.78 45.1354 28.2846 45.1849 27.7892C45.251 27.2773 45.3748 26.7902 45.5565 26.3279C45.7546 25.849 46.0188 25.4279 46.3491 25.0646H49.4205C49.0572 25.494 48.7269 25.9976 48.4297 26.5756C48.1325 27.137 47.926 27.6737 47.8105 28.1855C47.6949 28.6809 47.6949 29.102 47.8105 29.4488C47.9426 29.7955 48.2563 29.9607 48.7517 29.9442C49.2801 29.7295 49.7755 29.3992 50.2378 28.9534C50.7167 28.5075 51.1543 27.9874 51.5506 27.3929C51.9634 26.782 52.3432 26.1297 52.69 25.4362C53.0367 24.7426 53.3587 24.0491 53.656 23.3556C53.9532 22.6455 54.2174 21.9685 54.4486 21.3245C54.6963 20.664 54.9275 20.0695 55.1421 19.5411H52.1203L53.3587 16.9899H65.1241L61.6812 26.2288C61.2188 27.3517 60.9877 28.0122 60.9877 28.2103C60.9877 29.135 61.772 29.5974 63.3407 29.5974H67.1056L66.0901 32.0743H63.0187C61.8133 32.0743 60.9959 32.033 60.5666 31.9505C60.1372 31.8514 59.6997 31.6285 59.2538 31.2817C58.4282 30.6542 58.0154 29.8451 58.0154 28.8543C58.0154 28.3259 58.3704 27.2113 59.0804 25.5105L61.384 19.5411H57.6934C57.3961 20.3172 57.0741 21.1594 56.7274 22.0676C56.3806 22.9758 55.9925 23.884 55.5632 24.7922C55.1504 25.7004 54.688 26.5838 54.1761 27.4425C53.6807 28.3011 53.1276 29.0607 52.5166 29.7212C51.9056 30.3817 51.2369 30.9184 50.5103 31.3312C49.7837 31.7441 48.9911 31.967 48.1325 32ZM82.1158 28.0617C81.5213 28.9864 80.836 29.746 80.0599 30.3405C79.3003 30.9184 78.4912 31.356 77.6325 31.6532C76.7904 31.9505 75.9235 32.1238 75.0318 32.1734C74.1401 32.2229 73.2732 32.1734 72.431 32.0248C71.176 31.8101 70.2018 31.3808 69.5083 30.7368C68.8312 30.0763 68.4597 29.1433 68.3936 27.9379C68.3276 26.7159 68.5835 25.1885 69.1615 23.3556C69.7394 21.5226 70.6559 19.3017 71.9109 16.6926L75.1309 16.7174L72.6044 21.8942C73.2154 21.2997 73.9419 20.8621 74.7841 20.5814C75.6262 20.3007 76.4849 20.1768 77.3601 20.2099C78.2353 20.2429 79.0692 20.4328 79.8618 20.7796C80.6709 21.1263 81.3232 21.63 81.8185 22.2905C82.3304 22.951 82.6359 23.7601 82.735 24.7179C82.8341 25.6756 82.6277 26.7902 82.1158 28.0617ZM79.4655 27.17C79.9278 26.1132 80.0599 25.2463 79.8618 24.5692C79.6801 23.8757 79.3086 23.3638 78.7472 23.0336C78.2022 22.7033 77.5335 22.5464 76.7409 22.5629C75.9482 22.5629 75.1804 22.7281 74.4373 23.0583C73.6942 23.3721 73.0337 23.8509 72.4558 24.4949C71.8944 25.1224 71.5641 25.8903 71.465 26.7985C71.3659 27.5581 71.4485 28.1773 71.7127 28.6562C71.9934 29.135 72.3815 29.4901 72.8769 29.7212C73.3722 29.9359 73.9337 30.0432 74.5612 30.0432C75.2052 30.0267 75.8409 29.9029 76.4684 29.6717C77.1124 29.4405 77.7069 29.1185 78.2518 28.7057C78.8132 28.2764 79.2673 27.7645 79.6141 27.17H79.4655ZM97.0763 26.1049C96.7131 26.9801 96.5314 27.6076 96.5314 27.9874C96.5314 28.7965 97.3488 29.2011 98.9836 29.2011H102.674L101.683 31.7523H98.4634C97.1754 31.7523 96.2094 31.6202 95.5654 31.356C94.9214 31.0918 94.4178 30.6212 94.0545 29.9442C93.7903 30.1093 93.5096 30.2909 93.2124 30.4891C92.6179 30.8854 92.1886 31.1578 91.9244 31.3065C91.2473 31.6697 90.3474 31.8514 89.2245 31.8514C88.2007 31.8514 87.4246 31.7936 86.8962 31.678C86.3678 31.5624 85.8889 31.3477 85.4596 31.034C84.4193 30.2579 83.8991 29.1681 83.8991 27.7645C83.8991 26.9719 84.2459 25.6508 84.9394 23.8014L87.6393 16.7422H90.5868L87.6393 24.594C87.1439 25.8985 86.8962 26.7902 86.8962 27.2691C86.8962 28.6066 87.8374 29.2754 89.7199 29.2754C90.2813 29.2754 90.8015 29.1515 91.2804 28.9039C91.7592 28.6562 92.5684 28.103 93.7077 27.2443L97.7946 16.7422H100.668L97.0763 26.1049ZM106.092 31.9505H103.244L108.99 16.9899H111.789L109.659 22.6373L117.437 22.5877L119.691 17.1385H122.514L118.848 26.1792C118.386 27.3021 118.155 27.9626 118.155 28.1608C118.155 29.0855 118.939 29.5479 120.508 29.5479H124.273L123.257 32.0248H120.186C118.981 32.0248 118.163 31.9835 117.734 31.9009C117.305 31.8018 116.867 31.5789 116.421 31.2322C115.595 30.6047 115.183 29.7955 115.183 28.8048C115.183 28.2764 115.538 27.1618 116.248 25.4609L116.545 24.7426H108.866L108.346 26.1792L106.092 31.9505ZM139.184 32.0495H132.323C130.061 32.0495 128.451 31.711 127.493 31.034C126.816 30.5716 126.271 29.9276 125.858 29.102C125.462 28.2599 125.264 27.3847 125.264 26.4765C125.264 25.4362 125.536 24.272 126.081 22.984C126.642 21.696 127.344 20.5897 128.186 19.665C129.095 18.6907 130.135 17.9229 131.307 17.3614C132.496 16.8 133.669 16.5193 134.825 16.5193C136.228 16.5193 137.384 16.9073 138.292 17.6834C139.2 18.4595 139.655 19.4503 139.655 20.6557C139.655 21.5474 139.366 22.4308 138.788 23.306H135.716C136.476 22.3153 136.856 21.5144 136.856 20.9034C136.856 20.375 136.649 19.9374 136.236 19.5906C135.824 19.2274 135.312 19.0457 134.701 19.0457C133.578 19.0457 132.389 19.5494 131.134 20.5566C130.226 21.2832 129.483 22.1749 128.905 23.2317C128.343 24.272 128.063 25.2628 128.063 26.204C128.063 26.815 128.211 27.3929 128.508 27.9379C128.822 28.4663 129.227 28.8626 129.722 29.1268C130.3 29.4405 131.373 29.5974 132.942 29.5974H140.175L139.184 32.0495ZM143.197 31.9752H140.323L146.862 16.9651H149.785L143.197 31.9752ZM150.132 24.3959L154.888 32.1734H151.717L146.763 23.95L155.655 17.0394H160.213L150.132 24.3959ZM172.176 26.1049C171.813 26.9801 171.632 27.6076 171.632 27.9874C171.632 28.7965 172.449 29.2011 174.084 29.2011H177.774L176.784 31.7523H173.564C172.276 31.7523 171.31 31.6202 170.666 31.356C170.022 31.0918 169.518 30.6212 169.155 29.9442C168.89 30.1093 168.61 30.2909 168.313 30.4891C167.718 30.8854 167.289 31.1578 167.025 31.3065C166.347 31.6697 165.448 31.8514 164.325 31.8514C163.301 31.8514 162.525 31.7936 161.996 31.678C161.468 31.5624 160.989 31.3477 160.56 31.034C159.519 30.2579 158.999 29.1681 158.999 27.7645C158.999 26.9719 159.346 25.6508 160.04 23.8014L162.739 16.7422H165.687L162.739 24.594C162.244 25.8985 161.996 26.7902 161.996 27.2691C161.996 28.6066 162.938 29.2754 164.82 29.2754C165.381 29.2754 165.902 29.1515 166.381 28.9039C166.859 28.6562 167.669 28.103 168.808 27.2443L172.895 16.7422H175.768L172.176 26.1049ZM192.14 26.1049C191.777 26.9801 191.596 27.6076 191.596 27.9874C191.596 28.7965 192.413 29.2011 194.048 29.2011H197.738L196.748 31.7523H193.528C192.24 31.7523 191.274 31.6202 190.63 31.356C189.986 31.0918 189.482 30.6212 189.119 29.9442C188.854 30.1093 188.574 30.2909 188.276 30.4891C187.682 30.8854 187.253 31.1578 186.988 31.3065C186.311 31.6697 185.411 31.8514 184.289 31.8514C183.265 31.8514 182.489 31.7936 181.96 31.678C181.432 31.5624 180.953 31.3477 180.524 31.034C179.483 30.2579 178.963 29.1681 178.963 27.7645C178.963 26.9719 179.31 25.6508 180.004 23.8014L182.703 16.7422H185.651L182.703 24.594C182.208 25.8985 181.96 26.7902 181.96 27.2691C181.96 28.6066 182.902 29.2754 184.784 29.2754C185.345 29.2754 185.866 29.1515 186.344 28.9039C186.823 28.6562 187.632 28.103 188.772 27.2443L192.859 16.7422H195.732L192.14 26.1049ZM195.509 8.98944C195.162 10.2279 194.601 11.2269 193.825 11.9865C193.065 12.7296 192 13.1011 190.63 13.1011C188.813 13.1011 187.674 12.9442 187.211 12.6305C187.013 12.4984 186.832 12.3333 186.666 12.1351C186.518 11.9205 186.386 11.6975 186.27 11.4664C186.171 11.2187 186.097 10.9792 186.047 10.748C185.998 10.5004 185.973 10.2774 185.973 10.0793C185.973 9.78205 186.055 9.41877 186.221 8.98944L188.004 8.81605C187.987 8.89862 187.979 8.97292 187.979 9.03897C187.979 9.08851 187.979 9.12979 187.979 9.16282C187.979 9.67472 188.194 10.0875 188.623 10.4013C189.069 10.6985 189.672 10.8471 190.431 10.8471C191.984 10.8471 193.065 10.1701 193.676 8.81605L195.509 8.98944Z" fill="#FF0000"/>
<rect x="120" y="36" width="76" height="18" rx="9" fill="#FF0000"/>
<path d="M131.72 49.16C130.909 49.16 130.205 48.9947 129.608 48.664C129.011 48.3333 128.547 47.864 128.216 47.256C127.885 46.6373 127.72 45.912 127.72 45.08C127.72 44.4507 127.811 43.8907 127.992 43.4C128.184 42.8987 128.456 42.472 128.808 42.12C129.16 41.7573 129.581 41.4853 130.072 41.304C130.563 41.112 131.112 41.016 131.72 41.016C132.531 41.016 133.235 41.1813 133.832 41.512C134.429 41.8427 134.893 42.312 135.224 42.92C135.555 43.528 135.72 44.248 135.72 45.08C135.72 45.7093 135.624 46.2747 135.432 46.776C135.251 47.2773 134.984 47.7093 134.632 48.072C134.28 48.424 133.859 48.696 133.368 48.888C132.877 49.0693 132.328 49.16 131.72 49.16ZM131.72 47.64C132.115 47.64 132.461 47.544 132.76 47.352C133.059 47.16 133.288 46.8773 133.448 46.504C133.619 46.12 133.704 45.6453 133.704 45.08C133.704 44.2267 133.523 43.592 133.16 43.176C132.797 42.7493 132.317 42.536 131.72 42.536C131.325 42.536 130.979 42.632 130.68 42.824C130.381 43.0053 130.147 43.288 129.976 43.672C129.816 44.0453 129.736 44.5147 129.736 45.08C129.736 45.9227 129.917 46.5627 130.28 47C130.643 47.4267 131.123 47.64 131.72 47.64ZM138.582 49.128C138.262 49.128 138.011 49.0427 137.83 48.872C137.659 48.6907 137.574 48.4347 137.574 48.104V42.056C137.574 41.7147 137.659 41.464 137.83 41.304C138.011 41.1333 138.262 41.048 138.582 41.048C138.902 41.048 139.147 41.1333 139.318 41.304C139.488 41.464 139.574 41.7147 139.574 42.056V44.2H143.03V42.056C143.03 41.7147 143.115 41.464 143.286 41.304C143.456 41.1333 143.702 41.048 144.022 41.048C144.342 41.048 144.587 41.1333 144.758 41.304C144.939 41.464 145.03 41.7147 145.03 42.056V48.104C145.03 48.4347 144.939 48.6907 144.758 48.872C144.587 49.0427 144.342 49.128 144.022 49.128C143.702 49.128 143.456 49.0427 143.286 48.872C143.115 48.6907 143.03 48.4347 143.03 48.104V45.768H139.574V48.104C139.574 48.4347 139.488 48.6907 139.318 48.872C139.158 49.0427 138.912 49.128 138.582 49.128ZM153.58 49.128C153.26 49.128 153.015 49.0427 152.844 48.872C152.673 48.6907 152.588 48.4347 152.588 48.104V42.744H150.124V43.656C150.124 44.392 150.076 45.0533 149.98 45.64C149.895 46.2267 149.756 46.7387 149.564 47.176C149.383 47.6133 149.143 47.9813 148.844 48.28C148.545 48.5787 148.188 48.8187 147.772 49C147.548 49.096 147.34 49.1227 147.148 49.08C146.967 49.0373 146.812 48.9573 146.684 48.84C146.567 48.712 146.492 48.5627 146.46 48.392C146.428 48.2107 146.449 48.0347 146.524 47.864C146.599 47.6933 146.743 47.5493 146.956 47.432C147.223 47.2827 147.441 47.096 147.612 46.872C147.783 46.648 147.916 46.3813 148.012 46.072C148.108 45.752 148.177 45.3893 148.22 44.984C148.263 44.5787 148.284 44.1147 148.284 43.592V42.296C148.284 41.9333 148.38 41.656 148.572 41.464C148.764 41.272 149.041 41.176 149.404 41.176H153.468C153.831 41.176 154.108 41.272 154.3 41.464C154.492 41.656 154.588 41.9333 154.588 42.296V48.104C154.588 48.4347 154.497 48.6907 154.316 48.872C154.145 49.0427 153.9 49.128 153.58 49.128ZM159.447 49.16C158.881 49.16 158.375 49.0533 157.927 48.84C157.489 48.616 157.143 48.3173 156.887 47.944C156.641 47.5707 156.519 47.1493 156.519 46.68C156.519 46.104 156.668 45.6507 156.967 45.32C157.265 44.9787 157.751 44.7333 158.423 44.584C159.095 44.4347 159.996 44.36 161.127 44.36H161.927V45.512H161.143C160.481 45.512 159.953 45.544 159.559 45.608C159.164 45.672 158.881 45.784 158.711 45.944C158.551 46.0933 158.471 46.3067 158.471 46.584C158.471 46.936 158.593 47.224 158.839 47.448C159.084 47.672 159.425 47.784 159.863 47.784C160.215 47.784 160.524 47.704 160.791 47.544C161.068 47.3733 161.287 47.144 161.447 46.856C161.607 46.568 161.687 46.2373 161.687 45.864V44.024C161.687 43.4907 161.569 43.1067 161.335 42.872C161.1 42.6373 160.705 42.52 160.151 42.52C159.841 42.52 159.505 42.5573 159.143 42.632C158.791 42.7067 158.417 42.8347 158.023 43.016C157.82 43.112 157.639 43.1387 157.479 43.096C157.329 43.0533 157.212 42.968 157.127 42.84C157.041 42.7013 156.999 42.552 156.999 42.392C156.999 42.232 157.041 42.0773 157.127 41.928C157.212 41.768 157.356 41.6507 157.559 41.576C158.049 41.3733 158.519 41.2293 158.967 41.144C159.425 41.0587 159.841 41.016 160.215 41.016C160.983 41.016 161.612 41.1333 162.103 41.368C162.604 41.6027 162.977 41.96 163.223 42.44C163.468 42.9093 163.591 43.5173 163.591 44.264V48.104C163.591 48.4347 163.511 48.6907 163.351 48.872C163.191 49.0427 162.961 49.128 162.663 49.128C162.364 49.128 162.129 49.0427 161.959 48.872C161.799 48.6907 161.719 48.4347 161.719 48.104V47.336H161.847C161.772 47.7093 161.623 48.0347 161.399 48.312C161.185 48.5787 160.913 48.7867 160.583 48.936C160.252 49.0853 159.873 49.16 159.447 49.16ZM166.752 49.128C166.549 49.128 166.378 49.0907 166.24 49.016C166.101 48.9413 165.994 48.824 165.92 48.664C165.856 48.504 165.824 48.3013 165.824 48.056V42.008C165.824 41.6987 165.904 41.464 166.064 41.304C166.224 41.1333 166.448 41.048 166.736 41.048C167.024 41.048 167.242 41.1333 167.392 41.304C167.552 41.464 167.632 41.6987 167.632 42.008V46.952H167.216L171.168 41.688C171.285 41.5387 171.429 41.3947 171.6 41.256C171.77 41.1173 172.005 41.048 172.304 41.048C172.506 41.048 172.672 41.0853 172.8 41.16C172.938 41.2347 173.04 41.352 173.104 41.512C173.178 41.6613 173.216 41.8587 173.216 42.104V48.168C173.216 48.4667 173.136 48.7013 172.976 48.872C172.826 49.0427 172.608 49.128 172.32 49.128C172.021 49.128 171.792 49.0427 171.632 48.872C171.482 48.7013 171.408 48.4667 171.408 48.168V43.208H171.84L167.872 48.488C167.765 48.6373 167.626 48.7813 167.456 48.92C167.296 49.0587 167.061 49.128 166.752 49.128ZM169.52 40.184C168.858 40.184 168.282 40.0347 167.792 39.736C167.301 39.4267 166.954 38.9947 166.752 38.44C166.677 38.2373 166.666 38.072 166.72 37.944C166.784 37.8053 166.896 37.7093 167.056 37.656C167.216 37.6027 167.354 37.608 167.472 37.672C167.6 37.736 167.712 37.864 167.808 38.056C167.989 38.3973 168.218 38.6533 168.496 38.824C168.784 38.9947 169.125 39.08 169.52 39.08C169.925 39.08 170.266 38.9947 170.544 38.824C170.832 38.6533 171.061 38.3973 171.232 38.056C171.328 37.864 171.434 37.736 171.552 37.672C171.68 37.608 171.824 37.6027 171.984 37.656C172.144 37.7093 172.25 37.8053 172.304 37.944C172.368 38.072 172.352 38.2373 172.256 38.44C171.989 38.9947 171.632 39.4267 171.184 39.736C170.736 40.0347 170.181 40.184 169.52 40.184ZM176.488 49.128C176.168 49.128 175.917 49.0427 175.736 48.872C175.565 48.6907 175.48 48.4347 175.48 48.104V42.056C175.48 41.7147 175.565 41.464 175.736 41.304C175.917 41.1333 176.168 41.048 176.488 41.048C176.808 41.048 177.053 41.1333 177.224 41.304C177.394 41.464 177.48 41.7147 177.48 42.056V44.2H180.936V42.056C180.936 41.7147 181.021 41.464 181.192 41.304C181.362 41.1333 181.608 41.048 181.928 41.048C182.248 41.048 182.493 41.1333 182.664 41.304C182.845 41.464 182.936 41.7147 182.936 42.056V48.104C182.936 48.4347 182.845 48.6907 182.664 48.872C182.493 49.0427 182.248 49.128 181.928 49.128C181.608 49.128 181.362 49.0427 181.192 48.872C181.021 48.6907 180.936 48.4347 180.936 48.104V45.768H177.48V48.104C177.48 48.4347 177.394 48.6907 177.224 48.872C177.064 49.0427 176.818 49.128 176.488 49.128Z" fill="white"/>
<circle cx="189" cy="45" r="3" fill="#FFA900"/>
</svg>
