<svg width="22" height="22" viewBox="0 0 22 22" fill="none" xmlns="http://www.w3.org/2000/svg">
<g clip-path="url(#clip0_3301_9577)">
<path d="M17.3869 13.6282C16.9365 13.1592 16.3932 12.9084 15.8175 12.9084C15.2464 12.9084 14.6985 13.1545 14.2295 13.6235L12.7622 15.0861C12.6415 15.0211 12.5208 14.9608 12.4047 14.9004C12.2375 14.8168 12.0797 14.7379 11.945 14.6543C10.5706 13.7814 9.32157 12.6438 8.12361 11.1719C7.5432 10.4382 7.15317 9.82069 6.86993 9.19385C7.25068 8.8456 7.60357 8.48343 7.94717 8.13518C8.07718 8.00517 8.20719 7.87052 8.3372 7.74051C9.31228 6.76543 9.31228 5.50246 8.3372 4.52738L7.06959 3.25977C6.92565 3.11583 6.77707 2.96725 6.63777 2.81866C6.35917 2.53078 6.06665 2.23361 5.76484 1.95502C5.31444 1.50927 4.77583 1.27246 4.20935 1.27246C3.64287 1.27246 3.09497 1.50927 2.63064 1.95502C2.626 1.95966 2.626 1.95966 2.62136 1.96431L1.04265 3.55694C0.448316 4.15128 0.109359 4.87562 0.035067 5.71605C-0.076371 7.07188 0.322949 8.33485 0.629403 9.16134C1.38161 11.1904 2.50528 13.071 4.18149 15.0861C6.21523 17.5146 8.66223 19.4322 11.4575 20.7834C12.5254 21.2895 13.9509 21.8885 15.5435 21.9906C15.641 21.9953 15.7432 21.9999 15.836 21.9999C16.9086 21.9999 17.8094 21.6145 18.5152 20.8484C18.5198 20.8391 18.5291 20.8345 18.5338 20.8252C18.7752 20.5327 19.0538 20.268 19.3463 19.9848C19.546 19.7944 19.7503 19.5947 19.95 19.3858C20.4097 18.9075 20.6511 18.3503 20.6511 17.7792C20.6511 17.2035 20.405 16.6509 19.936 16.1866L17.3869 13.6282ZM19.0492 18.5175C19.0445 18.5175 19.0445 18.5221 19.0492 18.5175C18.8681 18.7125 18.6824 18.889 18.4827 19.084C18.1809 19.3719 17.8744 19.6737 17.5866 20.0126C17.1176 20.5141 16.565 20.7509 15.8407 20.7509C15.771 20.7509 15.6968 20.7509 15.6271 20.7463C14.2481 20.658 12.9665 20.1194 12.0054 19.6597C9.37729 18.3875 7.06959 16.5813 5.15193 14.2921C3.56858 12.3838 2.50992 10.6193 1.80879 8.72488C1.37697 7.56871 1.2191 6.66792 1.28874 5.8182C1.33518 5.27494 1.54412 4.82455 1.92951 4.43916L3.51286 2.85581C3.74038 2.64222 3.98183 2.52614 4.21864 2.52614C4.51116 2.52614 4.74797 2.70258 4.89655 2.85117C4.90119 2.85581 4.90584 2.86045 4.91048 2.8651C5.19372 3.12976 5.46303 3.40371 5.74627 3.69624C5.89021 3.84482 6.03879 3.99341 6.18737 4.14663L7.45498 5.41424C7.94717 5.90643 7.94717 6.36146 7.45498 6.85365C7.32033 6.9883 7.19032 7.12296 7.05566 7.25297C6.66563 7.65229 6.29417 8.02375 5.89021 8.38592C5.88092 8.39521 5.87163 8.39985 5.86699 8.40914C5.46767 8.80846 5.54196 9.19849 5.62554 9.46315C5.63018 9.47708 5.63483 9.49101 5.63947 9.50494C5.96914 10.3036 6.43347 11.0558 7.13924 11.9519L7.14388 11.9566C8.42542 13.5353 9.77661 14.7657 11.2671 15.7083C11.4575 15.8291 11.6525 15.9266 11.8382 16.0194C12.0054 16.103 12.1632 16.1819 12.2979 16.2655C12.3165 16.2748 12.335 16.2887 12.3536 16.298C12.5115 16.377 12.6601 16.4141 12.8133 16.4141C13.1987 16.4141 13.4401 16.1727 13.5191 16.0937L15.1071 14.5057C15.2649 14.3479 15.5157 14.1575 15.8082 14.1575C16.0961 14.1575 16.3329 14.3386 16.4768 14.4964C16.4815 14.5011 16.4815 14.5011 16.4861 14.5057L19.0445 17.0642C19.5228 17.5378 19.5228 18.0253 19.0492 18.5175Z" fill="white"/>
<path d="M11.8893 5.23324C13.1058 5.43755 14.2109 6.01331 15.0931 6.89553C15.9754 7.77774 16.5465 8.88284 16.7554 10.0994C16.8065 10.4058 17.0712 10.6194 17.373 10.6194C17.4101 10.6194 17.4426 10.6148 17.4798 10.6101C17.8234 10.5544 18.0509 10.2294 17.9952 9.88578C17.7444 8.41387 17.048 7.07197 15.9846 6.00867C14.9213 4.94536 13.5794 4.24887 12.1075 3.99814C11.7639 3.94242 11.4435 4.16994 11.3832 4.5089C11.3228 4.84785 11.5457 5.17752 11.8893 5.23324Z" fill="white"/>
<path d="M21.9744 9.70466C21.5612 7.28089 20.4189 5.07534 18.6638 3.32019C16.9087 1.56505 14.7031 0.422806 12.2793 0.0095565C11.9404 -0.0508058 11.62 0.181357 11.5596 0.520314C11.5039 0.863915 11.7314 1.1843 12.075 1.24466C14.2388 1.61148 16.2122 2.63764 17.7816 4.20241C19.351 5.77183 20.3725 7.74521 20.7393 9.90897C20.7904 10.2154 21.0551 10.429 21.3569 10.429C21.394 10.429 21.4265 10.4244 21.4637 10.4197C21.8026 10.3686 22.0348 10.0436 21.9744 9.70466Z" fill="white"/>
</g>
<defs>
<clipPath id="clip0_3301_9577">
<rect width="22" height="22" fill="white"/>
</clipPath>
</defs>
</svg>
