<svg width="42" height="31" viewBox="0 0 42 31" fill="none" xmlns="http://www.w3.org/2000/svg">
<path d="M0 20C0 8.95431 8.95431 0 20 0H42V11C42 22.0457 33.0457 31 22 31H0V20Z" fill="#FF0000"/>
<path d="M18.58 22.84C18.4067 23.1333 18.1933 23.3067 17.94 23.36C17.7 23.4133 17.4667 23.3733 17.24 23.24C17.0267 23.12 16.88 22.94 16.8 22.7C16.72 22.4467 16.7667 22.1733 16.94 21.88L24.32 9.08C24.4933 8.77333 24.7 8.6 24.94 8.56C25.1933 8.50667 25.4267 8.54667 25.64 8.68C25.8533 8.8 26 8.98 26.08 9.22C26.16 9.46 26.12 9.72667 25.96 10.02L18.58 22.84ZM16.44 17.32C15.32 17.32 14.4467 16.9333 13.82 16.16C13.1933 15.3867 12.88 14.3333 12.88 13C12.88 11.6667 13.1933 10.62 13.82 9.86C14.4467 9.08667 15.32 8.7 16.44 8.7C17.56 8.7 18.4333 9.08667 19.06 9.86C19.6867 10.62 20 11.6667 20 13C20 14.3333 19.6867 15.3867 19.06 16.16C18.4333 16.9333 17.56 17.32 16.44 17.32ZM16.44 15.64C16.92 15.64 17.2933 15.4267 17.56 15C17.8267 14.56 17.96 13.8933 17.96 13C17.96 12.1067 17.8267 11.4467 17.56 11.02C17.2933 10.5933 16.92 10.38 16.44 10.38C15.96 10.38 15.5867 10.5933 15.32 11.02C15.0533 11.4333 14.92 12.0933 14.92 13C14.92 13.9067 15.0533 14.5733 15.32 15C15.5867 15.4267 15.96 15.64 16.44 15.64ZM26.48 23.2C25.36 23.2 24.4867 22.8133 23.86 22.04C23.2333 21.2667 22.92 20.2133 22.92 18.88C22.92 17.5467 23.2333 16.5 23.86 15.74C24.4867 14.9667 25.36 14.58 26.48 14.58C27.6 14.58 28.4733 14.9667 29.1 15.74C29.7267 16.5 30.04 17.5467 30.04 18.88C30.04 20.2133 29.7267 21.2667 29.1 22.04C28.4733 22.8133 27.6 23.2 26.48 23.2ZM26.48 21.52C26.96 21.52 27.3333 21.3067 27.6 20.88C27.8667 20.44 28 19.7733 28 18.88C28 17.9867 27.8667 17.3267 27.6 16.9C27.3333 16.4733 26.96 16.26 26.48 16.26C26 16.26 25.6267 16.4733 25.36 16.9C25.0933 17.3133 24.96 17.9733 24.96 18.88C24.96 19.7867 25.0933 20.4533 25.36 20.88C25.6267 21.3067 26 21.52 26.48 21.52Z" fill="white"/>
</svg>
