<svg width="18" height="16" viewBox="0 0 18 16" fill="none" xmlns="http://www.w3.org/2000/svg">
<path d="M16.4095 1.44373C15.4955 0.518308 14.2782 0.00621698 12.9849 0.00621698C11.6916 0.00621698 10.4706 0.518308 9.55667 1.44739C9.41157 1.59432 9.17436 1.59432 9.02926 1.44739L9.02203 1.44007C8.10447 0.510993 6.88707 -0.00109863 5.5902 -0.00109863C4.29694 -0.00109863 3.08316 0.507335 2.16921 1.43641C1.25164 2.36549 0.749512 3.59817 0.749512 4.90766C0.749512 6.21715 1.25526 7.44983 2.17282 8.37525L8.77277 15.058C8.91005 15.197 9.09789 15.2775 9.29658 15.2775C9.49165 15.2775 9.6795 15.197 9.82038 15.058L16.4023 8.38622C17.3198 7.45714 17.822 6.22447 17.8256 4.91498C17.8292 3.60549 17.3235 2.37281 16.4095 1.44373Z" fill="#FFA900" fill-opacity="0.45"/>
</svg>
