<svg width="14" height="15" viewBox="0 0 14 15" fill="none" xmlns="http://www.w3.org/2000/svg">
<path d="M7.06067 7.31174C8.85885 7.31174 10.4476 5.71659 10.6032 3.75562C10.6805 2.77049 10.3525 1.85178 9.67943 1.16924C9.0135 0.49505 8.08256 0.123779 7.06067 0.123779C6.03061 0.123779 5.09898 0.492804 4.43782 1.16282C3.76917 1.84022 3.44318 2.76086 3.51812 3.75498C3.67106 5.71627 5.25942 7.31174 7.06067 7.31174Z" fill="#FFA900" fill-opacity="0.45"/>
<path d="M13.7037 13.1815C13.4334 11.6479 12.5894 10.3595 11.2633 9.45542C10.0854 8.65255 8.5931 8.21033 7.06103 8.21033C5.52895 8.21033 4.0366 8.65255 2.8588 9.45509C1.53269 10.3592 0.688661 11.6475 0.418314 13.1812C0.356493 13.5327 0.440416 13.8802 0.648621 14.1348C0.743056 14.2508 0.861631 14.3437 0.995686 14.4068C1.12974 14.47 1.27589 14.5017 1.42347 14.4997H12.6986C12.8462 14.5018 12.9925 14.4702 13.1267 14.4071C13.2608 14.3441 13.3795 14.2511 13.4741 14.1351C13.6816 13.8806 13.7656 13.533 13.7037 13.1815Z" fill="#FFA900" fill-opacity="0.45"/>
</svg>
