<svg width="45" height="44" viewBox="0 0 45 44" fill="none" xmlns="http://www.w3.org/2000/svg">
<rect y="0.034668" width="44.8276" height="43.0345" rx="16" fill="#FFF8EB"/>
<rect x="0.5" y="0.534668" width="43.8276" height="42.0345" rx="15.5" stroke="#FFA900" stroke-opacity="0.45"/>
<path d="M30.6014 21.0616L27.5376 24.1244H25.9176C26.052 23.7461 26.1252 23.3394 26.1252 22.9161C26.1252 20.9195 24.4968 19.2911 22.5002 19.2911H16.6545L15.25 18.8233V16.8748C15.25 16.2075 14.709 15.6665 14.0417 15.6665H9.20831C8.54097 15.6665 8 16.2075 8 16.8748V33.7915C8 34.4588 8.54097 34.9998 9.20831 34.9998H14.0416C14.709 34.9998 15.2499 34.4588 15.2499 33.7915V32.5827H22.447C25.868 32.5827 29.2177 31.6073 32.1049 29.7706L32.3109 29.6054L35.7281 26.187C37.14 24.7769 37.14 22.4732 35.728 21.0611C34.3159 19.649 32.0122 19.649 30.6014 21.0616ZM12.8333 32.5831H10.4167V18.0831H12.8334V32.5831H12.8333ZM34.0197 24.4777L30.6975 27.801C28.2231 29.3462 25.365 30.166 22.447 30.166H15.2502V21.3705L16.0768 21.6458C16.1999 21.6868 16.3288 21.7077 16.4585 21.7077H22.5002C23.1621 21.7077 23.7085 22.2542 23.7085 22.916C23.7085 23.5778 23.162 24.1243 22.5002 24.1243C20.8891 24.1243 20.8891 26.541 22.5002 26.541H28.038C28.3585 26.541 28.6657 26.4137 28.8923 26.1872L32.3107 22.77C32.7783 22.3018 33.551 22.3018 34.0191 22.7699C34.4872 23.2379 34.4873 24.0107 34.0197 24.4777Z" fill="#FFD481"/>
<path d="M35.7915 6H26.1248C25.4575 6 24.9165 6.54097 24.9165 7.20831V16.875C24.9165 17.5423 25.4575 18.0833 26.1248 18.0833H35.7915C36.4588 18.0833 36.9998 17.5423 36.9998 16.875V7.20831C36.9998 6.54097 36.4588 6 35.7915 6ZM34.5831 15.6667H27.3331V8.41669H29.7498V10.8334C29.7498 11.5007 30.2908 12.0417 30.9581 12.0417C31.6255 12.0417 32.1664 11.5007 32.1664 10.8334V8.41669H34.5831V15.6667Z" fill="#FFD481"/>
</svg>
